M48
; DRILL file {KiCad (6.0.5)} date Mon Dec  5 21:37:43 2022
; FORMAT={-:-/ absolute / metric / decimal}
; #@! TF.CreationDate,2022-12-05T21:37:43+09:00
; #@! TF.GenerationSoftware,Kicad,Pcbnew,(6.0.5)
; #@! TF.FileFunction,Plated,1,2,PTH
FMAT,2
METRIC
; #@! TA.AperFunction,Plated,PTH,ViaDrill
T1C0.400
; #@! TA.AperFunction,Plated,PTH,ViaDrill
T2C0.500
; #@! TA.AperFunction,Plated,PTH,ComponentDrill
T3C0.800
; #@! TA.AperFunction,Plated,PTH,ViaDrill
T4C1.000
; #@! TA.AperFunction,Plated,PTH,ComponentDrill
T5C1.000
; #@! TA.AperFunction,Plated,PTH,ComponentDrill
T6C1.200
; #@! TA.AperFunction,Plated,PTH,ComponentDrill
T7C1.500
; #@! TA.AperFunction,Plated,PTH,ComponentDrill
T8C1.520
%
G90
G05
T1
X66.675Y-132.334
X75.565Y-71.12
X80.645Y-111.76
X80.645Y-125.095
X85.09Y-87.63
X86.36Y-53.975
X89.535Y-87.63
X90.17Y-122.555
X90.17Y-132.08
X91.44Y-123.825
X92.075Y-130.175
X97.79Y-111.76
X98.425Y-125.73
X99.695Y-139.7
X99.784Y-119.38
X100.419Y-93.98
X100.965Y-99.06
X100.965Y-106.68
X100.965Y-120.015
X101.6Y-96.52
X103.505Y-120.65
X104.775Y-54.61
X104.775Y-57.15
X104.775Y-59.69
X104.775Y-62.23
X104.775Y-119.38
X106.045Y-142.24
X107.95Y-57.15
X110.49Y-113.03
X111.125Y-120.65
X111.76Y-114.3
X112.395Y-119.38
X113.03Y-115.57
X125.095Y-128.27
X127.635Y-128.27
X129.54Y-121.92
X130.175Y-128.27
X130.81Y-120.015
X132.08Y-118.11
X132.715Y-128.27
X133.35Y-58.42
X133.35Y-60.96
X133.35Y-63.5
X133.35Y-66.04
X133.35Y-68.58
X133.35Y-71.12
X133.35Y-116.84
X139.065Y-54.61
X139.065Y-57.15
X149.86Y-121.92
X150.495Y-64.77
X150.495Y-66.675
X150.495Y-68.58
X151.13Y-120.015
X152.4Y-118.11
X153.67Y-116.84
X154.305Y-68.58
X155.575Y-66.675
X156.845Y-64.77
T2
X99.695Y-48.26
X118.11Y-119.38
X157.48Y-118.745
T3
X66.546Y-90.155
X66.558Y-97.755
X66.675Y-128.255
X66.687Y-135.855
X68.324Y-90.155
X68.336Y-97.755
X68.453Y-128.255
X68.465Y-135.855
X70.102Y-90.155
X70.114Y-97.755
X70.231Y-128.255
X70.243Y-135.855
X71.16Y-61.595
X71.88Y-90.155
X71.892Y-97.755
X72.009Y-128.255
X72.021Y-135.855
X73.658Y-90.155
X73.66Y-61.595
X73.67Y-97.755
X73.787Y-128.255
X73.799Y-135.855
X75.436Y-90.155
X75.448Y-97.755
X75.565Y-128.255
X75.577Y-135.855
X76.24Y-123.19
X77.214Y-90.155
X77.226Y-97.755
X77.343Y-128.255
X77.355Y-135.855
X77.47Y-85.09
X78.74Y-123.19
X78.992Y-90.155
X79.004Y-97.755
X79.121Y-128.255
X79.133Y-135.855
X79.97Y-85.09
X80.01Y-52.07
X80.01Y-54.57
X80.77Y-90.155
X80.782Y-97.755
X80.899Y-128.255
X80.911Y-135.855
X82.548Y-90.155
X82.56Y-97.755
X82.59Y-123.19
X82.677Y-128.255
X82.689Y-135.855
X83.86Y-85.09
X84.326Y-90.155
X84.338Y-97.755
X84.455Y-128.255
X84.467Y-135.855
X85.09Y-123.19
X86.066Y-90.155
X86.116Y-97.755
X86.195Y-128.255
X86.245Y-135.855
X86.36Y-85.09
X90.17Y-90.17
X90.17Y-97.79
X90.17Y-128.27
X90.17Y-135.89
X95.188Y-50.8
X95.188Y-53.34
X95.188Y-55.88
X95.188Y-58.42
X95.188Y-60.96
X95.188Y-63.5
X95.188Y-66.04
X95.188Y-68.58
X95.188Y-71.12
X95.188Y-73.66
X95.188Y-76.2
X95.188Y-78.74
X95.188Y-81.28
X95.188Y-83.82
X95.188Y-86.36
X95.188Y-88.9
X95.188Y-91.44
X95.188Y-93.98
X95.188Y-96.52
X95.188Y-99.06
X95.188Y-101.6
X95.188Y-104.14
X95.188Y-106.68
X95.188Y-109.22
X118.047Y-50.8
X118.047Y-53.34
X118.047Y-55.88
X118.047Y-58.42
X118.047Y-60.96
X118.047Y-63.5
X118.047Y-66.04
X118.047Y-68.58
X118.047Y-71.12
X118.047Y-73.66
X118.047Y-76.2
X118.047Y-78.74
X118.047Y-81.28
X118.047Y-83.82
X118.047Y-86.36
X118.047Y-88.9
X118.047Y-91.44
X118.047Y-93.98
X118.047Y-96.52
X118.047Y-99.06
X118.047Y-101.6
X118.047Y-104.14
X118.047Y-106.68
X118.047Y-109.22
X131.445Y-50.8
X135.9Y-133.392
X135.9Y-141.012
X138.44Y-133.392
X138.44Y-141.012
X140.98Y-133.392
X140.98Y-141.012
X143.52Y-133.392
X143.52Y-141.012
X146.06Y-133.392
X146.06Y-141.012
X148.6Y-133.392
X148.6Y-141.012
X151.14Y-133.392
X151.14Y-141.012
X153.68Y-133.392
X153.68Y-141.012
T4
X82.55Y-109.855
X82.55Y-113.665
X83.058Y-71.882
X85.09Y-109.855
X85.09Y-113.665
X87.63Y-109.855
X87.63Y-113.665
X90.17Y-109.855
X90.17Y-113.665
T5
X80.01Y-61.595
X80.01Y-64.135
X80.01Y-66.675
X90.17Y-50.79
X90.17Y-53.33
X90.17Y-55.87
X90.17Y-58.41
X90.17Y-60.95
X90.17Y-63.49
X90.17Y-66.03
X90.17Y-68.57
X90.17Y-71.12
X90.17Y-73.66
X94.72Y-134.7
X94.72Y-137.2
X94.72Y-139.7
X109.22Y-134.7
X109.22Y-139.7
X115.57Y-134.66
X115.57Y-137.16
X115.57Y-139.66
X126.69Y-97.79
X126.69Y-100.33
X126.69Y-102.87
X126.69Y-105.41
X126.69Y-107.95
X126.69Y-110.49
X126.69Y-113.03
X126.69Y-115.57
X130.07Y-134.66
X130.07Y-139.66
X148.045Y-49.505
X148.045Y-52.045
X148.045Y-54.585
X148.045Y-57.125
X148.045Y-59.665
X148.045Y-62.205
X150.585Y-49.505
X150.585Y-52.045
X150.585Y-54.585
X150.585Y-57.125
X150.585Y-59.665
X150.585Y-62.205
X155.15Y-115.51
X155.17Y-97.73
X155.17Y-100.27
X155.17Y-102.81
X155.17Y-105.35
X155.17Y-107.89
X155.17Y-110.43
X155.17Y-112.97
X158.75Y-125.73
X158.75Y-128.27
X158.75Y-130.81
X158.75Y-133.35
X158.75Y-135.89
T6
X66.04Y-140.97
X71.12Y-80.01
X71.12Y-102.87
X71.12Y-118.11
X86.36Y-140.97
X91.44Y-80.01
X91.44Y-102.87
X91.44Y-118.11
T8
X64.77Y-67.31
X64.77Y-72.39
X64.77Y-77.47
X64.77Y-82.55
X64.77Y-105.41
X64.77Y-110.49
X64.77Y-115.57
X64.77Y-120.65
T5
G00X67.66Y-51.07
M15
G01X67.66Y-53.07
M16
G05
G00X69.66Y-56.77
M15
G01X71.66Y-56.77
M16
G05
G00X73.66Y-51.07
M15
G01X73.66Y-53.07
M16
G05
T7
G00X101.57Y-131.6
M15
G01X102.87Y-131.6
M16
G05
G00X101.57Y-142.8
M15
G01X102.87Y-142.8
M16
G05
G00X122.42Y-131.56
M15
G01X123.72Y-131.56
M16
G05
G00X122.42Y-142.76
M15
G01X123.72Y-142.76
M16
G05
T0
M30
