M48
; DRILL file {KiCad (6.0.11)} date Mon Feb 27 19:00:06 2023
; FORMAT={-:-/ absolute / metric / decimal}
; #@! TF.CreationDate,2023-02-27T19:00:06+09:00
; #@! TF.GenerationSoftware,Kicad,Pcbnew,(6.0.11)
; #@! TF.FileFunction,Plated,1,2,PTH
FMAT,2
METRIC
; #@! TA.AperFunction,Plated,PTH,ViaDrill
T1C0.400
; #@! TA.AperFunction,Plated,PTH,ComponentDrill
T2C0.700
; #@! TA.AperFunction,Plated,PTH,ComponentDrill
T3C0.800
; #@! TA.AperFunction,Plated,PTH,ComponentDrill
T4C1.000
; #@! TA.AperFunction,Plated,PTH,ComponentDrill
T5C1.010
; #@! TA.AperFunction,Plated,PTH,ComponentDrill
T6C1.200
; #@! TA.AperFunction,Plated,PTH,ComponentDrill
T7C1.500
; #@! TA.AperFunction,Plated,PTH,ComponentDrill
T8C1.520
%
G90
G05
T1
X75.565Y-81.28
X79.375Y-102.235
X88.265Y-116.205
X95.25Y-127.254
X98.044Y-85.598
X100.838Y-53.086
X103.124Y-50.546
X106.68Y-54.61
X106.68Y-57.15
X106.68Y-59.69
X107.315Y-62.865
X109.22Y-65.405
X109.855Y-120.65
X110.49Y-67.945
X111.125Y-50.165
X112.395Y-120.65
X114.3Y-69.85
X115.316Y-82.55
X115.57Y-48.895
X117.856Y-120.65
X120.904Y-122.682
X120.904Y-128.016
X121.666Y-66.548
X122.174Y-56.642
X122.174Y-59.69
X123.698Y-81.788
X123.952Y-104.648
X124.968Y-88.138
X125.476Y-91.186
X129.032Y-120.65
X130.81Y-72.009
X130.81Y-78.232
X132.08Y-48.895
X132.08Y-52.578
X132.08Y-56.388
X132.08Y-59.944
X132.588Y-108.712
X133.858Y-101.854
X134.874Y-118.11
X137.16Y-108.712
X138.176Y-95.758
X138.43Y-72.009
X138.43Y-74.93
X138.43Y-78.105
X139.192Y-115.316
X139.192Y-120.65
X139.192Y-127.0
X147.32Y-72.009
X149.352Y-120.65
X149.352Y-127.0
X150.622Y-88.392
X155.702Y-88.392
X156.21Y-61.214
X156.21Y-72.009
X158.75Y-54.61
T2
X81.28Y-57.15
X115.57Y-113.562
X122.65Y-113.538
X129.318Y-105.41
X129.387Y-97.79
X129.54Y-66.04
X129.54Y-81.28
X132.08Y-66.04
X132.08Y-81.28
X134.62Y-66.04
X134.62Y-81.28
X136.398Y-105.386
X136.467Y-97.766
X137.16Y-66.04
X137.16Y-81.28
X139.7Y-66.04
X139.7Y-81.28
X145.288Y-107.974
X145.288Y-113.054
X145.288Y-115.594
X149.074Y-90.424
X149.098Y-97.504
X152.368Y-107.95
X152.368Y-113.03
X152.368Y-115.57
X152.376Y-90.424
X152.4Y-97.504
T3
X65.012Y-87.447
X65.024Y-95.047
X65.276Y-124.445
X65.288Y-132.045
X66.04Y-98.425
X66.04Y-135.89
X66.79Y-87.447
X66.802Y-95.047
X67.054Y-124.445
X67.066Y-132.045
X68.568Y-87.447
X68.58Y-95.047
X68.832Y-124.445
X68.844Y-132.045
X70.346Y-87.447
X70.358Y-95.047
X70.61Y-124.445
X70.622Y-132.045
X72.124Y-87.447
X72.136Y-95.047
X72.388Y-124.445
X72.4Y-132.045
X73.66Y-98.425
X73.66Y-135.89
X73.902Y-87.447
X73.914Y-95.047
X74.166Y-124.445
X74.178Y-132.045
X75.488Y-69.215
X75.585Y-108.585
X75.68Y-87.447
X75.692Y-95.047
X75.944Y-124.445
X75.956Y-132.045
X77.458Y-87.447
X77.47Y-95.047
X77.722Y-124.445
X77.734Y-132.045
X77.988Y-69.215
X78.085Y-108.585
X78.125Y-98.425
X78.125Y-135.255
X79.236Y-87.447
X79.248Y-95.047
X79.5Y-124.445
X79.512Y-132.045
X80.625Y-98.425
X80.625Y-135.255
X81.014Y-87.447
X81.026Y-95.047
X81.278Y-124.445
X81.29Y-132.045
X82.792Y-87.447
X82.804Y-95.047
X83.056Y-124.445
X83.068Y-132.045
X83.205Y-135.255
X84.532Y-87.447
X84.582Y-95.047
X84.796Y-124.445
X84.846Y-132.045
X85.11Y-138.43
X85.705Y-135.255
X86.995Y-92.337
X86.995Y-94.837
X87.61Y-138.43
X88.265Y-76.835
X88.265Y-123.21
X88.265Y-125.71
X89.535Y-66.04
X89.535Y-73.66
X90.765Y-76.835
X95.188Y-50.8
X95.188Y-53.34
X95.188Y-55.88
X95.188Y-58.42
X95.188Y-60.96
X95.188Y-63.5
X95.188Y-66.04
X95.188Y-68.58
X95.188Y-71.12
X95.188Y-73.66
X95.188Y-76.2
X95.188Y-78.74
X95.188Y-81.28
X95.188Y-83.82
X95.188Y-86.36
X95.188Y-88.9
X95.188Y-91.44
X95.188Y-93.98
X95.188Y-96.52
X95.188Y-99.06
X95.188Y-101.6
X95.188Y-104.14
X95.188Y-106.68
X95.188Y-109.22
X95.25Y-112.395
X95.25Y-120.015
X95.895Y-133.33
X95.895Y-140.95
X98.435Y-133.33
X98.435Y-140.95
X100.975Y-133.33
X100.975Y-140.95
X103.515Y-133.33
X103.515Y-140.95
X106.055Y-133.33
X106.055Y-140.95
X108.595Y-133.33
X108.595Y-140.95
X111.135Y-133.33
X111.135Y-140.95
X113.675Y-133.33
X113.675Y-140.95
X118.047Y-50.8
X118.047Y-53.34
X118.047Y-55.88
X118.047Y-58.42
X118.047Y-60.96
X118.047Y-63.5
X118.047Y-66.04
X118.047Y-68.58
X118.047Y-71.12
X118.047Y-73.66
X118.047Y-76.2
X118.047Y-78.74
X118.047Y-81.28
X118.047Y-83.82
X118.047Y-86.36
X118.047Y-88.9
X118.047Y-91.44
X118.047Y-93.98
X118.047Y-96.52
X118.047Y-99.06
X118.047Y-101.6
X118.047Y-104.14
X118.047Y-106.68
X118.047Y-109.22
T4
X80.025Y-50.8
X82.565Y-50.8
X85.105Y-50.8
X92.71Y-50.79
X92.71Y-53.33
X92.71Y-55.87
X92.71Y-58.41
X92.71Y-60.95
X92.71Y-63.49
X92.71Y-66.03
X92.71Y-68.57
X92.71Y-71.12
X92.71Y-73.66
X119.115Y-134.66
X119.115Y-137.16
X119.115Y-139.66
X126.69Y-97.79
X126.69Y-100.33
X126.69Y-102.87
X126.69Y-105.41
X126.69Y-107.95
X126.69Y-110.49
X126.69Y-113.03
X126.69Y-115.57
X133.615Y-134.66
X133.615Y-139.66
X143.88Y-134.66
X143.88Y-137.16
X143.88Y-139.66
X148.045Y-53.594
X148.045Y-56.134
X148.045Y-58.674
X148.045Y-61.214
X148.045Y-63.754
X148.045Y-66.294
X150.585Y-53.594
X150.585Y-56.134
X150.585Y-58.674
X150.585Y-61.214
X150.585Y-63.754
X150.585Y-66.294
X155.15Y-115.51
X155.17Y-97.73
X155.17Y-100.27
X155.17Y-102.81
X155.17Y-105.35
X155.17Y-107.89
X155.17Y-110.43
X155.17Y-112.97
X158.38Y-134.66
X158.38Y-139.66
T5
X73.025Y-61.755
X78.125Y-62.955
T6
X71.12Y-81.28
X71.12Y-104.14
X71.12Y-116.205
X71.12Y-143.51
X91.44Y-81.28
X91.44Y-104.14
X91.44Y-116.205
X91.44Y-143.51
T8
X64.77Y-67.31
X64.77Y-72.39
X64.77Y-77.47
X64.77Y-82.55
X64.77Y-102.87
X64.77Y-107.95
X64.77Y-113.03
X64.77Y-118.11
T4
G00X67.66Y-51.07
M15
G01X67.66Y-53.07
M16
G05
G00X69.66Y-56.77
M15
G01X71.66Y-56.77
M16
G05
G00X73.66Y-51.07
M15
G01X73.66Y-53.07
M16
G05
T7
G00X125.965Y-131.56
M15
G01X127.265Y-131.56
M16
G05
G00X125.965Y-142.76
M15
G01X127.265Y-142.76
M16
G05
G00X150.73Y-131.56
M15
G01X152.03Y-131.56
M16
G05
G00X150.73Y-142.76
M15
G01X152.03Y-142.76
M16
G05
T0
M30
