G04 #@! TF.GenerationSoftware,KiCad,Pcbnew,(6.0.9)*
G04 #@! TF.CreationDate,2023-01-01T16:59:07+09:00*
G04 #@! TF.ProjectId,tangnano9k_motordriver,74616e67-6e61-46e6-9f39-6b5f6d6f746f,rev?*
G04 #@! TF.SameCoordinates,Original*
G04 #@! TF.FileFunction,Soldermask,Top*
G04 #@! TF.FilePolarity,Negative*
%FSLAX46Y46*%
G04 Gerber Fmt 4.6, Leading zero omitted, Abs format (unit mm)*
G04 Created by KiCad (PCBNEW (6.0.9)) date 2023-01-01 16:59:07*
%MOMM*%
%LPD*%
G01*
G04 APERTURE LIST*
G04 Aperture macros list*
%AMRoundRect*
0 Rectangle with rounded corners*
0 $1 Rounding radius*
0 $2 $3 $4 $5 $6 $7 $8 $9 X,Y pos of 4 corners*
0 Add a 4 corners polygon primitive as box body*
4,1,4,$2,$3,$4,$5,$6,$7,$8,$9,$2,$3,0*
0 Add four circle primitives for the rounded corners*
1,1,$1+$1,$2,$3*
1,1,$1+$1,$4,$5*
1,1,$1+$1,$6,$7*
1,1,$1+$1,$8,$9*
0 Add four rect primitives between the rounded corners*
20,1,$1+$1,$2,$3,$4,$5,0*
20,1,$1+$1,$4,$5,$6,$7,0*
20,1,$1+$1,$6,$7,$8,$9,0*
20,1,$1+$1,$8,$9,$2,$3,0*%
%AMFreePoly0*
4,1,6,1.000000,0.000000,0.500000,-0.750000,-0.500000,-0.750000,-0.500000,0.750000,0.500000,0.750000,1.000000,0.000000,1.000000,0.000000,$1*%
%AMFreePoly1*
4,1,6,0.500000,-0.750000,-0.650000,-0.750000,-0.150000,0.000000,-0.650000,0.750000,0.500000,0.750000,0.500000,-0.750000,0.500000,-0.750000,$1*%
G04 Aperture macros list end*
%ADD10C,2.700000*%
%ADD11R,1.700000X1.700000*%
%ADD12C,1.700000*%
%ADD13C,1.600000*%
%ADD14O,1.600000X1.600000*%
%ADD15O,1.700000X1.700000*%
%ADD16C,2.400000*%
%ADD17O,2.400000X2.400000*%
%ADD18R,1.600000X1.600000*%
%ADD19FreePoly0,270.000000*%
%ADD20FreePoly1,270.000000*%
%ADD21R,2.000000X2.000000*%
%ADD22C,2.000000*%
%ADD23R,3.200000X2.000000*%
%ADD24R,1.000000X1.600000*%
%ADD25O,1.000000X1.600000*%
%ADD26R,1.100000X1.100000*%
%ADD27C,1.100000*%
%ADD28C,2.010000*%
%ADD29R,3.500000X3.500000*%
%ADD30RoundRect,0.750000X-0.750000X-1.000000X0.750000X-1.000000X0.750000X1.000000X-0.750000X1.000000X0*%
%ADD31RoundRect,0.875000X-0.875000X-0.875000X0.875000X-0.875000X0.875000X0.875000X-0.875000X0.875000X0*%
%ADD32C,3.000000*%
%ADD33FreePoly0,180.000000*%
%ADD34FreePoly1,180.000000*%
G04 APERTURE END LIST*
D10*
G04 #@! TO.C,REF\u002A\u002A*
X139065000Y-142875000D03*
G04 #@! TD*
D11*
G04 #@! TO.C,U4*
X155150000Y-115510000D03*
D12*
X155170000Y-112970000D03*
X155170000Y-110430000D03*
X155170000Y-107890000D03*
X155170000Y-105350000D03*
X155170000Y-102810000D03*
X155170000Y-100270000D03*
X155170000Y-97730000D03*
X126690000Y-97790000D03*
X126690000Y-100330000D03*
X126690000Y-102870000D03*
X126690000Y-105410000D03*
X126690000Y-107950000D03*
X126690000Y-110490000D03*
X126690000Y-113030000D03*
X126690000Y-115570000D03*
G04 #@! TD*
D13*
G04 #@! TO.C,U3*
X95187500Y-50800000D03*
D14*
X95187500Y-53340000D03*
X95187500Y-55880000D03*
X95187500Y-58420000D03*
X95187500Y-60960000D03*
X95187500Y-63500000D03*
X95187500Y-66040000D03*
X95187500Y-68580000D03*
X95187500Y-71120000D03*
X95187500Y-73660000D03*
X95187500Y-76200000D03*
X95187500Y-78740000D03*
X95187500Y-81280000D03*
X95187500Y-83820000D03*
X95187500Y-86360000D03*
X95187500Y-88900000D03*
X95187500Y-91440000D03*
X95187500Y-93980000D03*
X95187500Y-96520000D03*
X95187500Y-99060000D03*
X95187500Y-101600000D03*
X95187500Y-104140000D03*
X95187500Y-106680000D03*
X95187500Y-109220000D03*
X118047500Y-109220000D03*
D13*
X118047500Y-106680000D03*
D14*
X118047500Y-104140000D03*
X118047500Y-101600000D03*
X118047500Y-99060000D03*
X118047500Y-96520000D03*
X118047500Y-93980000D03*
X118047500Y-91440000D03*
X118047500Y-88900000D03*
X118047500Y-86360000D03*
X118047500Y-83820000D03*
X118047500Y-81280000D03*
X118047500Y-78740000D03*
X118047500Y-76200000D03*
X118047500Y-73660000D03*
X118047500Y-71120000D03*
X118047500Y-68580000D03*
X118047500Y-66040000D03*
X118047500Y-63500000D03*
X118047500Y-60960000D03*
X118047500Y-58420000D03*
X118047500Y-55880000D03*
X118047500Y-53340000D03*
X118047500Y-50800000D03*
G04 #@! TD*
D12*
G04 #@! TO.C,Pin3*
X92710000Y-71120000D03*
D15*
X92710000Y-73660000D03*
G04 #@! TD*
D12*
G04 #@! TO.C,Pin2*
X92710000Y-68570000D03*
D15*
X92710000Y-66030000D03*
X92710000Y-63490000D03*
X92710000Y-60950000D03*
G04 #@! TD*
D12*
G04 #@! TO.C,Pin1*
X92710000Y-58410000D03*
D15*
X92710000Y-55870000D03*
X92710000Y-53330000D03*
X92710000Y-50790000D03*
G04 #@! TD*
D13*
G04 #@! TO.C,R8*
X95250000Y-120015000D03*
D14*
X95250000Y-112395000D03*
G04 #@! TD*
G04 #@! TO.C,R7*
X89535000Y-66040000D03*
D13*
X89535000Y-73660000D03*
G04 #@! TD*
G04 #@! TO.C,C9*
X88265000Y-125710000D03*
X88265000Y-123210000D03*
G04 #@! TD*
G04 #@! TO.C,C8*
X90765000Y-76835000D03*
X88265000Y-76835000D03*
G04 #@! TD*
D16*
G04 #@! TO.C,R2*
X91440000Y-104140000D03*
D17*
X71120000Y-104140000D03*
G04 #@! TD*
D16*
G04 #@! TO.C,R3*
X71120000Y-81280000D03*
D17*
X91440000Y-81280000D03*
G04 #@! TD*
D13*
G04 #@! TO.C,R1*
X73660000Y-98425000D03*
D14*
X66040000Y-98425000D03*
G04 #@! TD*
D13*
G04 #@! TO.C,C4*
X86995000Y-94837500D03*
D18*
X86995000Y-92337500D03*
G04 #@! TD*
D13*
G04 #@! TO.C,C7*
X85110000Y-138430000D03*
X87610000Y-138430000D03*
G04 #@! TD*
D19*
G04 #@! TO.C,JP5*
X77638122Y-120087889D03*
D20*
X77638122Y-121537889D03*
G04 #@! TD*
D10*
G04 #@! TO.C,REF\u002A\u002A*
X157480000Y-50165000D03*
G04 #@! TD*
D18*
G04 #@! TO.C,C1*
X77987651Y-69215000D03*
D13*
X75487651Y-69215000D03*
G04 #@! TD*
D21*
G04 #@! TO.C,Rotary_SW2*
X119115000Y-134660000D03*
D22*
X119115000Y-139660000D03*
X119115000Y-137160000D03*
D23*
X126615000Y-142760000D03*
X126615000Y-131560000D03*
D22*
X133615000Y-139660000D03*
X133615000Y-134660000D03*
G04 #@! TD*
D19*
G04 #@! TO.C,JP7*
X84791886Y-120087889D03*
D20*
X84791886Y-121537889D03*
G04 #@! TD*
D24*
G04 #@! TO.C,U2*
X65024000Y-95046851D03*
D25*
X66802000Y-95046851D03*
X68580000Y-95046851D03*
X70358000Y-95046851D03*
X72136000Y-95046851D03*
X73914000Y-95046851D03*
X75692000Y-95046851D03*
X77470000Y-95046851D03*
X79248000Y-95046851D03*
X81026000Y-95046851D03*
X82804000Y-95046851D03*
X84582000Y-95046851D03*
X84532000Y-87446851D03*
X82792000Y-87446851D03*
X81014000Y-87446851D03*
X79236000Y-87446851D03*
X77458000Y-87446851D03*
X75680000Y-87446851D03*
X73902000Y-87446851D03*
X72124000Y-87446851D03*
X70346000Y-87446851D03*
X68568000Y-87446851D03*
X66790000Y-87446851D03*
X65012000Y-87446851D03*
G04 #@! TD*
D26*
G04 #@! TO.C,DS1*
X129540000Y-81280000D03*
D27*
X132080000Y-81280000D03*
X134620000Y-81280000D03*
X137160000Y-81280000D03*
X139700000Y-81280000D03*
X139700000Y-66040000D03*
X137160000Y-66040000D03*
X134620000Y-66040000D03*
X132080000Y-66040000D03*
X129540000Y-66040000D03*
G04 #@! TD*
D13*
G04 #@! TO.C,C6*
X83205000Y-135255000D03*
X85705000Y-135255000D03*
G04 #@! TD*
D11*
G04 #@! TO.C,U1*
X80025000Y-50800000D03*
D12*
X82565000Y-50800000D03*
D15*
X85105000Y-50800000D03*
G04 #@! TD*
D16*
G04 #@! TO.C,R5*
X91440000Y-143510000D03*
D17*
X71120000Y-143510000D03*
G04 #@! TD*
D24*
G04 #@! TO.C,U5*
X65287702Y-132045000D03*
D25*
X67065702Y-132045000D03*
X68843702Y-132045000D03*
X70621702Y-132045000D03*
X72399702Y-132045000D03*
X74177702Y-132045000D03*
X75955702Y-132045000D03*
X77733702Y-132045000D03*
X79511702Y-132045000D03*
X81289702Y-132045000D03*
X83067702Y-132045000D03*
X84845702Y-132045000D03*
X84795702Y-124445000D03*
X83055702Y-124445000D03*
X81277702Y-124445000D03*
X79499702Y-124445000D03*
X77721702Y-124445000D03*
X75943702Y-124445000D03*
X74165702Y-124445000D03*
X72387702Y-124445000D03*
X70609702Y-124445000D03*
X68831702Y-124445000D03*
X67053702Y-124445000D03*
X65275702Y-124445000D03*
G04 #@! TD*
D13*
G04 #@! TO.C,C5*
X78125000Y-135255000D03*
X80625000Y-135255000D03*
G04 #@! TD*
D28*
G04 #@! TO.C,F1*
X73025000Y-61755426D03*
X78125000Y-62955426D03*
G04 #@! TD*
D29*
G04 #@! TO.C,J1*
X73660000Y-52070000D03*
D30*
X67660000Y-52070000D03*
D31*
X70660000Y-56770000D03*
G04 #@! TD*
D13*
G04 #@! TO.C,C2*
X78085000Y-108585000D03*
D18*
X75585000Y-108585000D03*
G04 #@! TD*
D13*
G04 #@! TO.C,R4*
X73660000Y-135890000D03*
D14*
X66040000Y-135890000D03*
G04 #@! TD*
D10*
G04 #@! TO.C,REF\u002A\u002A*
X64770000Y-142875000D03*
G04 #@! TD*
D32*
G04 #@! TO.C,J3*
X64770000Y-102870000D03*
X64770000Y-107950000D03*
X64770000Y-113030000D03*
X64770000Y-118110000D03*
G04 #@! TD*
D19*
G04 #@! TO.C,JP6*
X83185000Y-108495000D03*
D20*
X83185000Y-109945000D03*
G04 #@! TD*
D12*
G04 #@! TO.C,J4*
X148045000Y-64745000D03*
D15*
X150585000Y-64745000D03*
D12*
X148045000Y-62205000D03*
D15*
X150585000Y-62205000D03*
X148045000Y-59665000D03*
X150585000Y-59665000D03*
X148045000Y-57125000D03*
X150585000Y-57125000D03*
X148045000Y-54585000D03*
X150585000Y-54585000D03*
X148045000Y-52045000D03*
X150585000Y-52045000D03*
G04 #@! TD*
D32*
G04 #@! TO.C,J2*
X64770000Y-67310000D03*
X64770000Y-72390000D03*
X64770000Y-77470000D03*
X64770000Y-82550000D03*
G04 #@! TD*
D13*
G04 #@! TO.C,C3*
X78125000Y-98425000D03*
D18*
X80625000Y-98425000D03*
G04 #@! TD*
D21*
G04 #@! TO.C,Rotary_SW1*
X143880000Y-134660000D03*
D22*
X143880000Y-139660000D03*
X143880000Y-137160000D03*
D23*
X151380000Y-131560000D03*
X151380000Y-142760000D03*
D22*
X158380000Y-139660000D03*
X158380000Y-134660000D03*
G04 #@! TD*
D13*
G04 #@! TO.C,SW3*
X113675000Y-133329796D03*
D14*
X111135000Y-133329796D03*
X108595000Y-133329796D03*
X106055000Y-133329796D03*
X103515000Y-133329796D03*
X100975000Y-133329796D03*
X98435000Y-133329796D03*
X95895000Y-133329796D03*
X95895000Y-140949796D03*
X98435000Y-140949796D03*
X100975000Y-140949796D03*
X103515000Y-140949796D03*
X106055000Y-140949796D03*
X108595000Y-140949796D03*
X111135000Y-140949796D03*
X113675000Y-140949796D03*
G04 #@! TD*
D33*
G04 #@! TO.C,JP8*
X88990000Y-130175000D03*
D34*
X87540000Y-130175000D03*
G04 #@! TD*
D16*
G04 #@! TO.C,R6*
X71120000Y-116205000D03*
D17*
X91440000Y-116205000D03*
G04 #@! TD*
D10*
G04 #@! TO.C,REF\u002A\u002A*
X64400000Y-60900000D03*
G04 #@! TD*
M02*
