%TF.GenerationSoftware,KiCad,Pcbnew,(6.0.5)*%
%TF.CreationDate,2022-12-05T21:49:19+09:00*%
%TF.ProjectId,tangnano9k_motordriver,74616e67-6e61-46e6-9f39-6b5f6d6f746f,rev?*%
%TF.SameCoordinates,Original*%
%TF.FileFunction,Soldermask,Bot*%
%TF.FilePolarity,Negative*%
%FSLAX46Y46*%
G04 Gerber Fmt 4.6, Leading zero omitted, Abs format (unit mm)*
G04 Created by KiCad (PCBNEW (6.0.5)) date 2022-12-05 21:49:19*
%MOMM*%
%LPD*%
G01*
G04 APERTURE LIST*
G04 Aperture macros list*
%AMRoundRect*
0 Rectangle with rounded corners*
0 $1 Rounding radius*
0 $2 $3 $4 $5 $6 $7 $8 $9 X,Y pos of 4 corners*
0 Add a 4 corners polygon primitive as box body*
4,1,4,$2,$3,$4,$5,$6,$7,$8,$9,$2,$3,0*
0 Add four circle primitives for the rounded corners*
1,1,$1+$1,$2,$3*
1,1,$1+$1,$4,$5*
1,1,$1+$1,$6,$7*
1,1,$1+$1,$8,$9*
0 Add four rect primitives between the rounded corners*
20,1,$1+$1,$2,$3,$4,$5,0*
20,1,$1+$1,$4,$5,$6,$7,0*
20,1,$1+$1,$6,$7,$8,$9,0*
20,1,$1+$1,$8,$9,$2,$3,0*%
G04 Aperture macros list end*
%ADD10C,2.700000*%
%ADD11C,2.400000*%
%ADD12O,2.400000X2.400000*%
%ADD13C,1.600000*%
%ADD14O,1.600000X1.600000*%
%ADD15R,1.600000X1.600000*%
%ADD16C,2.000000*%
%ADD17R,2.000000X2.000000*%
%ADD18R,3.200000X2.000000*%
%ADD19R,1.000000X1.600000*%
%ADD20O,1.000000X1.600000*%
%ADD21C,1.700000*%
%ADD22R,1.700000X1.700000*%
%ADD23O,1.700000X1.700000*%
%ADD24R,3.500000X3.500000*%
%ADD25RoundRect,0.750000X-0.750000X-1.000000X0.750000X-1.000000X0.750000X1.000000X-0.750000X1.000000X0*%
%ADD26RoundRect,0.875000X-0.875000X-0.875000X0.875000X-0.875000X0.875000X0.875000X-0.875000X0.875000X0*%
%ADD27C,3.000000*%
G04 APERTURE END LIST*
D10*
%TO.C,REF\u002A\u002A*%
X64400000Y-60900000D03*
%TD*%
%TO.C,REF\u002A\u002A*%
X63800000Y-144000000D03*
%TD*%
%TO.C,REF\u002A\u002A*%
X158000000Y-144100000D03*
%TD*%
%TO.C,REF\u002A\u002A*%
X156800000Y-70500000D03*
%TD*%
D11*
%TO.C,R2*%
X91440000Y-102870000D03*
D12*
X71120000Y-102870000D03*
%TD*%
D11*
%TO.C,R3*%
X71120000Y-80010000D03*
D12*
X91440000Y-80010000D03*
%TD*%
D13*
%TO.C,R1*%
X90170000Y-90170000D03*
D14*
X90170000Y-97790000D03*
%TD*%
D13*
%TO.C,C4*%
X86360000Y-85090000D03*
D15*
X83860000Y-85090000D03*
%TD*%
D14*
%TO.C,*%
X131445000Y-50800000D03*
%TD*%
D13*
%TO.C,C1*%
X80010000Y-52070000D03*
D15*
X80010000Y-54570000D03*
%TD*%
D16*
%TO.C,Rotary_SW1*%
X94720000Y-134700000D03*
X94720000Y-139700000D03*
D17*
X94720000Y-137200000D03*
D18*
X102220000Y-142800000D03*
X102220000Y-131600000D03*
D16*
X109220000Y-139700000D03*
D17*
X109220000Y-134700000D03*
%TD*%
D19*
%TO.C,U2*%
X66557702Y-97755000D03*
D20*
X68335702Y-97755000D03*
X70113702Y-97755000D03*
X71891702Y-97755000D03*
X73669702Y-97755000D03*
X75447702Y-97755000D03*
X77225702Y-97755000D03*
X79003702Y-97755000D03*
X80781702Y-97755000D03*
X82559702Y-97755000D03*
X84337702Y-97755000D03*
X86115702Y-97755000D03*
X86065702Y-90155000D03*
X84325702Y-90155000D03*
X82547702Y-90155000D03*
X80769702Y-90155000D03*
X78991702Y-90155000D03*
X77213702Y-90155000D03*
X75435702Y-90155000D03*
X73657702Y-90155000D03*
X71879702Y-90155000D03*
X70101702Y-90155000D03*
X68323702Y-90155000D03*
X66545702Y-90155000D03*
%TD*%
D13*
%TO.C,C6*%
X85090000Y-123190000D03*
D15*
X82590000Y-123190000D03*
%TD*%
D21*
%TO.C,U1*%
X80010000Y-61595000D03*
D22*
X80010000Y-64135000D03*
D23*
X80010000Y-66675000D03*
%TD*%
D12*
%TO.C,R5*%
X66040000Y-140970000D03*
D11*
X86360000Y-140970000D03*
%TD*%
D22*
%TO.C,J7*%
X158750000Y-135890000D03*
D23*
X158750000Y-133350000D03*
X158750000Y-130810000D03*
X158750000Y-128270000D03*
X158750000Y-125730000D03*
%TD*%
D19*
%TO.C,U5*%
X66687000Y-135855000D03*
D20*
X68465000Y-135855000D03*
X70243000Y-135855000D03*
X72021000Y-135855000D03*
X73799000Y-135855000D03*
X75577000Y-135855000D03*
X77355000Y-135855000D03*
X79133000Y-135855000D03*
X80911000Y-135855000D03*
X82689000Y-135855000D03*
X84467000Y-135855000D03*
X86245000Y-135855000D03*
X86195000Y-128255000D03*
X84455000Y-128255000D03*
X82677000Y-128255000D03*
X80899000Y-128255000D03*
X79121000Y-128255000D03*
X77343000Y-128255000D03*
X75565000Y-128255000D03*
X73787000Y-128255000D03*
X72009000Y-128255000D03*
X70231000Y-128255000D03*
X68453000Y-128255000D03*
X66675000Y-128255000D03*
%TD*%
D13*
%TO.C,C5*%
X78740000Y-123190000D03*
D15*
X76240000Y-123190000D03*
%TD*%
D21*
%TO.C,U4*%
X155150000Y-115510000D03*
X155170000Y-112970000D03*
X155170000Y-110430000D03*
X155170000Y-107890000D03*
X155170000Y-105350000D03*
X155170000Y-102810000D03*
X155170000Y-100270000D03*
X155170000Y-97730000D03*
X126690000Y-97790000D03*
X126690000Y-100330000D03*
X126690000Y-102870000D03*
X126690000Y-105410000D03*
X126690000Y-107950000D03*
X126690000Y-110490000D03*
X126690000Y-113030000D03*
X126690000Y-115570000D03*
%TD*%
D24*
%TO.C,J1*%
X73660000Y-52070000D03*
D25*
X67660000Y-52070000D03*
D26*
X70660000Y-56770000D03*
%TD*%
D13*
%TO.C,U3*%
X95187500Y-50800000D03*
D14*
X95187500Y-53340000D03*
X95187500Y-55880000D03*
X95187500Y-58420000D03*
X95187500Y-60960000D03*
X95187500Y-63500000D03*
X95187500Y-66040000D03*
X95187500Y-68580000D03*
X95187500Y-71120000D03*
X95187500Y-73660000D03*
X95187500Y-76200000D03*
X95187500Y-78740000D03*
X95187500Y-81280000D03*
X95187500Y-83820000D03*
X95187500Y-86360000D03*
X95187500Y-88900000D03*
X95187500Y-91440000D03*
X95187500Y-93980000D03*
X95187500Y-96520000D03*
X95187500Y-99060000D03*
X95187500Y-101600000D03*
X95187500Y-104140000D03*
X95187500Y-106680000D03*
X95187500Y-109220000D03*
X118047500Y-109220000D03*
D15*
X118047500Y-106680000D03*
D14*
X118047500Y-104140000D03*
X118047500Y-101600000D03*
X118047500Y-99060000D03*
X118047500Y-96520000D03*
X118047500Y-93980000D03*
X118047500Y-91440000D03*
X118047500Y-88900000D03*
X118047500Y-86360000D03*
X118047500Y-83820000D03*
X118047500Y-81280000D03*
X118047500Y-78740000D03*
X118047500Y-76200000D03*
X118047500Y-73660000D03*
X118047500Y-71120000D03*
X118047500Y-68580000D03*
X118047500Y-66040000D03*
X118047500Y-63500000D03*
X118047500Y-60960000D03*
X118047500Y-58420000D03*
X118047500Y-55880000D03*
X118047500Y-53340000D03*
X118047500Y-50800000D03*
%TD*%
D13*
%TO.C,C2*%
X73660000Y-61595000D03*
D15*
X71160000Y-61595000D03*
%TD*%
D21*
%TO.C,J5*%
X90170000Y-68570000D03*
D23*
X90170000Y-66030000D03*
X90170000Y-63490000D03*
X90170000Y-60950000D03*
%TD*%
D13*
%TO.C,R4*%
X90170000Y-128270000D03*
D14*
X90170000Y-135890000D03*
%TD*%
D21*
%TO.C,J6*%
X90170000Y-73660000D03*
D23*
X90170000Y-71120000D03*
%TD*%
D27*
%TO.C,J3*%
X64770000Y-105410000D03*
X64770000Y-110490000D03*
X64770000Y-115570000D03*
X64770000Y-120650000D03*
%TD*%
D21*
%TO.C,J4*%
X90170000Y-58410000D03*
D23*
X90170000Y-55870000D03*
X90170000Y-53330000D03*
X90170000Y-50790000D03*
%TD*%
D21*
%TO.C,J8*%
X148045000Y-62205000D03*
D23*
X150585000Y-62205000D03*
D22*
X148045000Y-59665000D03*
D23*
X150585000Y-59665000D03*
X148045000Y-57125000D03*
X150585000Y-57125000D03*
X148045000Y-54585000D03*
X150585000Y-54585000D03*
X148045000Y-52045000D03*
X150585000Y-52045000D03*
X148045000Y-49505000D03*
X150585000Y-49505000D03*
%TD*%
D27*
%TO.C,J2*%
X64770000Y-67310000D03*
X64770000Y-72390000D03*
X64770000Y-77470000D03*
X64770000Y-82550000D03*
%TD*%
D13*
%TO.C,C3*%
X77470000Y-85090000D03*
D15*
X79970000Y-85090000D03*
%TD*%
D16*
%TO.C,Rotary_SW2*%
X115570000Y-134660000D03*
X115570000Y-139660000D03*
D17*
X115570000Y-137160000D03*
D18*
X123070000Y-131560000D03*
X123070000Y-142760000D03*
D16*
X130070000Y-139660000D03*
D17*
X130070000Y-134660000D03*
%TD*%
D13*
%TO.C,SW3*%
X153680000Y-133392500D03*
D14*
X151140000Y-133392500D03*
X148600000Y-133392500D03*
X146060000Y-133392500D03*
X143520000Y-133392500D03*
X140980000Y-133392500D03*
X138440000Y-133392500D03*
X135900000Y-133392500D03*
X135900000Y-141012500D03*
X138440000Y-141012500D03*
X140980000Y-141012500D03*
X143520000Y-141012500D03*
X146060000Y-141012500D03*
X148600000Y-141012500D03*
X151140000Y-141012500D03*
X153680000Y-141012500D03*
%TD*%
D11*
%TO.C,R6*%
X71120000Y-118110000D03*
D12*
X91440000Y-118110000D03*
%TD*%
M02*
