M48
; DRILL file {KiCad (6.0.9)} date Sun Jan  1 17:00:10 2023
; FORMAT={-:-/ absolute / inch / decimal}
; #@! TF.CreationDate,2023-01-01T17:00:10+09:00
; #@! TF.GenerationSoftware,Kicad,Pcbnew,(6.0.9)
; #@! TF.FileFunction,Plated,1,2,PTH
FMAT,2
INCH
; #@! TA.AperFunction,Plated,PTH,ViaDrill
T1C0.0157
; #@! TA.AperFunction,Plated,PTH,ComponentDrill
T2C0.0276
; #@! TA.AperFunction,Plated,PTH,ComponentDrill
T3C0.0315
; #@! TA.AperFunction,Plated,PTH,ComponentDrill
T4C0.0394
; #@! TA.AperFunction,Plated,PTH,ComponentDrill
T5C0.0398
; #@! TA.AperFunction,Plated,PTH,ComponentDrill
T6C0.0472
; #@! TA.AperFunction,Plated,PTH,ComponentDrill
T7C0.0591
; #@! TA.AperFunction,Plated,PTH,ComponentDrill
T8C0.0598
%
G90
G05
T1
X2.975Y-3.2
X3.125Y-4.025
X3.475Y-4.575
X3.475Y-4.7
X3.73Y-5.0
X3.86Y-2.65
X3.86Y-2.76
X3.86Y-3.37
X3.95Y-1.975
X4.05Y-1.975
X4.2Y-2.15
X4.2Y-2.25
X4.2Y-2.35
X4.225Y-2.475
X4.3Y-2.575
X4.325Y-4.75
X4.35Y-2.675
X4.375Y-1.975
X4.425Y-4.75
X4.5Y-2.75
X4.525Y-3.25
X4.55Y-1.925
X4.64Y-4.75
X4.825Y-3.175
X4.85Y-5.05
X4.875Y-3.425
X4.875Y-3.525
X4.925Y-1.925
X4.925Y-2.05
X4.925Y-2.15
X5.08Y-4.75
X5.15Y-2.835
X5.2Y-1.925
X5.2Y-2.05
X5.2Y-2.15
X5.275Y-4.1
X5.275Y-4.35
X5.275Y-4.5
X5.45Y-2.835
X5.45Y-2.95
X5.45Y-3.075
X5.475Y-4.75
X5.8Y-2.835
X5.875Y-4.75
X6.15Y-2.35
X6.15Y-2.835
X6.25Y-2.15
T2
X5.1Y-2.6
X5.1Y-3.2
X5.2Y-2.6
X5.2Y-3.2
X5.3Y-2.6
X5.3Y-3.2
X5.4Y-2.6
X5.4Y-3.2
X5.5Y-2.6
X5.5Y-3.2
T3
X2.5595Y-3.4428
X2.56Y-3.742
X2.5699Y-4.8994
X2.5704Y-5.1986
X2.6Y-3.875
X2.6Y-5.35
X2.6295Y-3.4428
X2.63Y-3.742
X2.6399Y-4.8994
X2.6404Y-5.1986
X2.6995Y-3.4428
X2.7Y-3.742
X2.7099Y-4.8994
X2.7104Y-5.1986
X2.7695Y-3.4428
X2.77Y-3.742
X2.7799Y-4.8994
X2.7804Y-5.1986
X2.8395Y-3.4428
X2.84Y-3.742
X2.8499Y-4.8994
X2.8504Y-5.1986
X2.9Y-3.875
X2.9Y-5.35
X2.9095Y-3.4428
X2.91Y-3.742
X2.9199Y-4.8994
X2.9204Y-5.1986
X2.972Y-2.725
X2.9758Y-4.275
X2.9795Y-3.4428
X2.98Y-3.742
X2.9899Y-4.8994
X2.9904Y-5.1986
X3.0495Y-3.4428
X3.05Y-3.742
X3.0599Y-4.8994
X3.0604Y-5.1986
X3.0704Y-2.725
X3.0742Y-4.275
X3.0758Y-3.875
X3.0758Y-5.325
X3.1195Y-3.4428
X3.12Y-3.742
X3.1299Y-4.8994
X3.1304Y-5.1986
X3.1742Y-3.875
X3.1742Y-5.325
X3.1895Y-3.4428
X3.19Y-3.742
X3.1999Y-4.8994
X3.2004Y-5.1986
X3.2595Y-3.4428
X3.26Y-3.742
X3.2699Y-4.8994
X3.2704Y-5.1986
X3.2758Y-5.325
X3.328Y-3.4428
X3.33Y-3.742
X3.3384Y-4.8994
X3.3404Y-5.1986
X3.3508Y-5.45
X3.3742Y-5.325
X3.425Y-3.6353
X3.425Y-3.7338
X3.4492Y-5.45
X3.475Y-3.025
X3.475Y-4.8508
X3.475Y-4.9492
X3.525Y-2.6
X3.525Y-2.9
X3.5734Y-3.025
X3.7475Y-2.0
X3.7475Y-2.1
X3.7475Y-2.2
X3.7475Y-2.3
X3.7475Y-2.4
X3.7475Y-2.5
X3.7475Y-2.6
X3.7475Y-2.7
X3.7475Y-2.8
X3.7475Y-2.9
X3.7475Y-3.0
X3.7475Y-3.1
X3.7475Y-3.2
X3.7475Y-3.3
X3.7475Y-3.4
X3.7475Y-3.5
X3.7475Y-3.6
X3.7475Y-3.7
X3.7475Y-3.8
X3.7475Y-3.9
X3.7475Y-4.0
X3.7475Y-4.1
X3.7475Y-4.2
X3.7475Y-4.3
X3.75Y-4.425
X3.75Y-4.725
X3.7754Y-5.2492
X3.7754Y-5.5492
X3.8754Y-5.2492
X3.8754Y-5.5492
X3.9754Y-5.2492
X3.9754Y-5.5492
X4.0754Y-5.2492
X4.0754Y-5.5492
X4.1754Y-5.2492
X4.1754Y-5.5492
X4.2754Y-5.2492
X4.2754Y-5.5492
X4.3754Y-5.2492
X4.3754Y-5.5492
X4.4754Y-5.2492
X4.4754Y-5.5492
X4.6475Y-2.0
X4.6475Y-2.1
X4.6475Y-2.2
X4.6475Y-2.3
X4.6475Y-2.4
X4.6475Y-2.5
X4.6475Y-2.6
X4.6475Y-2.7
X4.6475Y-2.8
X4.6475Y-2.9
X4.6475Y-3.0
X4.6475Y-3.1
X4.6475Y-3.2
X4.6475Y-3.3
X4.6475Y-3.4
X4.6475Y-3.5
X4.6475Y-3.6
X4.6475Y-3.7
X4.6475Y-3.8
X4.6475Y-3.9
X4.6475Y-4.0
X4.6475Y-4.1
X4.6475Y-4.2
X4.6475Y-4.3
T4
X3.1506Y-2.0
X3.2506Y-2.0
X3.3506Y-2.0
X3.65Y-1.9996
X3.65Y-2.0996
X3.65Y-2.1996
X3.65Y-2.2996
X3.65Y-2.3996
X3.65Y-2.4996
X3.65Y-2.5996
X3.65Y-2.6996
X3.65Y-2.8
X3.65Y-2.9
X4.6896Y-5.3016
X4.6896Y-5.4
X4.6896Y-5.4984
X4.9878Y-3.85
X4.9878Y-3.95
X4.9878Y-4.05
X4.9878Y-4.15
X4.9878Y-4.25
X4.9878Y-4.35
X4.9878Y-4.45
X4.9878Y-4.55
X5.2604Y-5.3016
X5.2604Y-5.4984
X5.6646Y-5.3016
X5.6646Y-5.4
X5.6646Y-5.4984
X5.8285Y-2.049
X5.8285Y-2.149
X5.8285Y-2.249
X5.8285Y-2.349
X5.8285Y-2.449
X5.8285Y-2.549
X5.9285Y-2.049
X5.9285Y-2.149
X5.9285Y-2.249
X5.9285Y-2.349
X5.9285Y-2.449
X5.9285Y-2.549
X6.1083Y-4.5476
X6.1091Y-3.8476
X6.1091Y-3.9476
X6.1091Y-4.0476
X6.1091Y-4.1476
X6.1091Y-4.2476
X6.1091Y-4.3476
X6.1091Y-4.4476
X6.2354Y-5.3016
X6.2354Y-5.4984
T5
X2.875Y-2.4313
X3.0758Y-2.4786
T6
X2.8Y-3.2
X2.8Y-4.1
X2.8Y-4.575
X2.8Y-5.65
X3.6Y-3.2
X3.6Y-4.1
X3.6Y-4.575
X3.6Y-5.65
T8
X2.55Y-2.65
X2.55Y-2.85
X2.55Y-3.05
X2.55Y-3.25
X2.55Y-4.05
X2.55Y-4.25
X2.55Y-4.45
X2.55Y-4.65
T4
G00X2.6638Y-2.0106
M15
G01X2.6638Y-2.0894
M16
G05
G00X2.7425Y-2.235
M15
G01X2.8213Y-2.235
M16
G05
G00X2.9Y-2.0106
M15
G01X2.9Y-2.0894
M16
G05
T7
G00X4.9593Y-5.1795
M15
G01X5.0104Y-5.1795
M16
G05
G00X4.9593Y-5.6205
M15
G01X5.0104Y-5.6205
M16
G05
G00X5.9343Y-5.1795
M15
G01X5.9854Y-5.1795
M16
G05
G00X5.9343Y-5.6205
M15
G01X5.9854Y-5.6205
M16
G05
T0
M30
